<?xml version="1.0" standalone="no"?>
<!DOCTYPE svg PUBLIC "-//W3C//DTD SVG 20010904//EN"
 "http://www.w3.org/TR/2001/REC-SVG-20010904/DTD/svg10.dtd">
<svg version="1.0" xmlns="http://www.w3.org/2000/svg"
 width="512.000000pt" height="512.000000pt" viewBox="0 0 512.000000 512.000000"
 preserveAspectRatio="xMidYMid meet">

<g transform="translate(0.000000,512.000000) scale(0.100000,-0.100000)"
fill="#000000" stroke="none">
<path d="M2192 5099 c-26 -13 -55 -39 -70 -62 -23 -35 -28 -53 -31 -129 -4
-126 4 -172 42 -214 l31 -36 -28 -566 c-19 -376 -33 -584 -42 -621 -23 -87
-53 -143 -172 -325 -114 -174 -157 -261 -195 -394 -20 -73 -21 -102 -25 -584
l-3 -508 25 -25 c32 -32 70 -32 101 0 l25 24 0 459 c0 644 -1 638 211 964 127
193 153 247 182 369 l22 89 294 -2 295 -3 12 -65 c24 -127 48 -177 197 -403
197 -302 197 -302 197 -922 0 -389 2 -471 15 -494 23 -46 66 -54 109 -20 l26
20 0 489 c0 533 -3 565 -58 718 -33 90 -66 147 -183 322 -119 180 -151 254
-163 381 -4 35 -18 295 -32 578 -25 508 -25 514 -6 535 43 47 52 81 52 196 0
148 -24 198 -113 235 -30 12 -91 15 -354 15 -305 0 -320 -1 -361 -21z m666
-141 c7 -7 12 -42 12 -88 0 -46 -5 -81 -12 -88 -17 -17 -589 -17 -606 0 -7 7
-12 42 -12 88 0 46 5 81 12 88 17 17 589 17 606 0z m-55 -420 c4 -46 7 -104 7
-130 l0 -48 -256 0 -257 0 7 61 c3 34 6 93 6 130 l0 69 244 0 243 0 6 -82z
m18 -355 c0 -16 6 -130 12 -256 l12 -227 -289 0 -289 0 6 113 c4 61 10 176 13
255 l7 142 263 0 264 0 1 -27z"/>
<path d="M2223 2630 c-92 -19 -166 -80 -205 -166 -18 -41 -18 -78 -16 -826 l3
-783 27 -47 c16 -25 45 -60 65 -77 71 -58 92 -61 467 -61 336 0 342 1 391 24
56 25 115 86 142 143 17 35 18 92 18 808 0 611 -3 778 -13 807 -19 53 -93 132
-149 158 -40 19 -66 23 -151 24 -97 1 -105 0 -123 -23 -24 -29 -24 -72 -1
-101 16 -20 31 -24 121 -29 100 -6 104 -7 131 -38 18 -20 31 -48 35 -75 3 -24
5 -362 3 -753 -3 -678 -4 -711 -22 -738 -38 -56 -47 -57 -397 -57 l-321 0 -39
39 -39 39 0 746 c0 808 -1 788 53 818 12 7 63 15 114 18 108 7 133 21 133 80
0 56 -26 74 -113 77 -40 1 -91 -2 -114 -7z"/>
<path d="M1743 1400 c-12 -5 -27 -18 -33 -29 -7 -15 -10 -192 -8 -593 3 -569
3 -573 25 -614 34 -63 66 -97 125 -129 l53 -30 629 -3 c711 -3 697 -4 781 70
27 24 58 64 71 93 l24 50 0 577 0 577 -26 20 c-15 12 -33 21 -40 21 -26 0 -62
-23 -73 -47 -8 -16 -11 -191 -11 -571 0 -531 -1 -548 -20 -580 -39 -63 -28
-62 -687 -62 -579 0 -599 1 -631 20 -18 11 -41 34 -52 52 -19 32 -20 52 -20
586 l0 553 -25 24 c-25 26 -45 30 -82 15z"/>
</g>
</svg>
